<?xml version="1.0" standalone="no"?>
<!DOCTYPE svg PUBLIC "-//W3C//DTD SVG 20010904//EN"
 "http://www.w3.org/TR/2001/REC-SVG-20010904/DTD/svg10.dtd">
<svg version="1.0" xmlns="http://www.w3.org/2000/svg"
 width="512.000000pt" height="512.000000pt" viewBox="0 0 512.000000 512.000000"
 preserveAspectRatio="xMidYMid meet">

<g transform="translate(0.000000,512.000000) scale(0.100000,-0.100000)"
fill="#000000" stroke="none">
<path d="M3440 4791 c-339 -74 -601 -323 -691 -656 -18 -65 -22 -107 -22 -225
0 -118 4 -160 22 -225 71 -265 251 -478 498 -592 77 -36 204 -72 257 -74 l31
-1 -30 -8 c-16 -4 -79 -16 -140 -25 -406 -63 -798 -326 -1019 -684 l-46 -74
80 -46 c255 -146 480 -359 634 -597 46 -72 137 -252 168 -331 l16 -43 962 0
962 0 -5 248 c-6 271 -19 361 -79 537 -176 516 -633 905 -1168 991 -52 9 -111
18 -130 21 -31 5 -28 7 37 18 344 60 621 316 714 660 18 65 22 107 22 225 0
118 -4 160 -22 225 -86 318 -332 564 -646 646 -116 30 -294 35 -405 10z"/>
<path d="M1320 3891 c-339 -74 -601 -323 -691 -656 -32 -115 -32 -335 0 -450
71 -265 251 -478 498 -592 77 -36 204 -72 257 -74 l31 -1 -30 -8 c-16 -4 -75
-15 -130 -23 -146 -23 -264 -60 -400 -126 -143 -70 -243 -136 -345 -228 -254
-229 -409 -496 -480 -828 -18 -81 -23 -146 -27 -347 l-5 -248 1502 0 1502 0
-5 248 c-4 198 -9 266 -26 343 -103 476 -403 862 -825 1063 -121 58 -267 104
-390 122 -188 29 -180 25 -99 39 344 60 621 316 714 660 18 65 22 107 22 225
0 118 -4 160 -22 225 -86 318 -332 564 -646 646 -116 30 -294 35 -405 10z"/>
</g>
</svg>
